<?xml version='1.0' encoding='utf-8'?>
<svg xmlns:xlink="http://www.w3.org/1999/xlink" xmlns="http://www.w3.org/2000/svg" viewBox="0 0 800 600"><!--Generated with pygal 0.13.0 ©Kozea 2012 on 2013-04-26--><!--http://pygal.org--><!--http://github.com/Kozea/pygal--><defs><style type="text/css">.title{font-family:monospace;font-size:16px}.legends .legend text{font-family:monospace;font-size:14px}.axis text{font-family:monospace;font-size:10px}.axis text.major{font-family:monospace;font-size:10px}.series text{font-family:monospace;font-size:8px}#tooltip text{font-family:monospace;font-size:20px}text.no_data{font-size:64px}</style><style type="text/css">svg{background-color:black}svg path,svg line,svg rect,svg circle{-webkit-transition:250ms;-moz-transition:250ms;transition:250ms}.graph &gt; .background{fill:black}.plot &gt; .background{fill:#111}.graph{fill:#999}text.no_data{fill:#eee}.title{fill:#eee}.legends .legend text{fill:#999}.legends .legend:hover text{fill:#eee}.axis .line{stroke:#eee}.axis .guide.line{stroke:#555}.axis .major.line{stroke:#999}.axis text.major{stroke:#eee;fill:#eee}.axis.y .guides:hover .guide.line,.line-graph .axis.x .guides:hover .guide.line,.stackedline-graph .axis.x .guides:hover .guide.line,.xy-graph .axis.x .guides:hover .guide.line{stroke:#eee}.axis .guides:hover text{fill:#eee}.reactive{fill-opacity:.8}.reactive.active,.active .reactive{fill-opacity:.4}.series text{fill:#eee}#tooltip rect{fill:#111;stroke:#eee}#tooltip text{fill:#eee}.color-0{stroke:#ff5995;fill:#ff5995}.color-1{stroke:#b6e354;fill:#b6e354}.color-2{stroke:#feed6c;fill:#feed6c}.color-3{stroke:#8cedff;fill:#8cedff}.color-4{stroke:#9e6ffe;fill:#9e6ffe}.color-5{stroke:#899ca1;fill:#899ca1}.color-6{stroke:#f8f8f2;fill:#f8f8f2}.color-7{stroke:#bf4646;fill:#bf4646}.color-8{stroke:#516083;fill:#516083}.color-9{stroke:#f92672;fill:#f92672}.color-10{stroke:#82b414;fill:#82b414}.color-11{stroke:#fd971f;fill:#fd971f}.color-12{stroke:#56c2d6;fill:#56c2d6}.color-13{stroke:#808384;fill:#808384}.color-14{stroke:#8c54fe;fill:#8c54fe}.color-15{stroke:#465457;fill:#465457}</style><style type="text/css">text.no_data{text-anchor:middle}.guide.line{fill-opacity:0}.centered{text-anchor:middle}.title{text-anchor:middle}.legends .legend text{fill-opacity:1}.axis.x text{text-anchor:middle}.axis.x:not(.web) text[transform]{text-anchor:start}.axis.y text{text-anchor:end}.axis.y2 text{text-anchor:start}.axis.y .logarithmic text:not(.major),.axis.y2 .logarithmic text:not(.major){font-size:50%}.axis .guide.line{stroke-dasharray:4,4}.axis .major.guide.line{stroke-dasharray:6,6}.axis text.major{stroke-width:0.5px}.horizontal .axis.y .guide.line,.horizontal .axis.y2 .guide.line,.vertical .axis.x .guide.line{opacity:0}.axis.y .guides:hover .guide.line,.axis.y2 .guides:hover .guide.line,.line-graph .axis.x .guides:hover .guide.line,.gauge-graph .axis.x .guides:hover .guide.line,.stackedline-graph .axis.x .guides:hover .guide.line,.xy-graph .axis.x .guides:hover .guide.line{opacity:1}.axis .guides:hover text{opacity:1}.nofill{fill:none}.dot{stroke-width:1px;fill-opacity:1}.dot.active{stroke-width:5px}.series text{stroke:none}.series text.active{opacity:1}#tooltip rect{fill-opacity:0.8}#tooltip text{fill-opacity:1}#tooltip text tspan.label{fill-opacity:.8}a:visited{fill:none}</style><script type="text/javascript">window.config = {"truncate_legend": null, "print_values": true, "tooltip_font_size": 20, "height": 600, "legend_at_bottom": false, "show_legend": true, "show_dots": false, "explicit_size": false, "legend_font_size": 14, "x_labels_major_count": null, "major_label_font_size": 10, "fill": false, "style": {"opacity": ".8", "foreground": "#999", "plot_background": "#111", "_colors": ["#ff5995", "#b6e354", "#feed6c", "#8cedff", "#9e6ffe", "#899ca1", "#f8f8f2", "#bf4646", "#516083", "#f92672", "#82b414", "#fd971f", "#56c2d6", "#808384", "#8c54fe", "#465457"], "foreground_light": "#eee", "transition": "250ms", "foreground_dark": "#555", "colors": ".color-0 {\n  stroke: #ff5995;\n  fill: #ff5995;\n}\n\n.color-1 {\n  stroke: #b6e354;\n  fill: #b6e354;\n}\n\n.color-2 {\n  stroke: #feed6c;\n  fill: #feed6c;\n}\n\n.color-3 {\n  stroke: #8cedff;\n  fill: #8cedff;\n}\n\n.color-4 {\n  stroke: #9e6ffe;\n  fill: #9e6ffe;\n}\n\n.color-5 {\n  stroke: #899ca1;\n  fill: #899ca1;\n}\n\n.color-6 {\n  stroke: #f8f8f2;\n  fill: #f8f8f2;\n}\n\n.color-7 {\n  stroke: #bf4646;\n  fill: #bf4646;\n}\n\n.color-8 {\n  stroke: #516083;\n  fill: #516083;\n}\n\n.color-9 {\n  stroke: #f92672;\n  fill: #f92672;\n}\n\n.color-10 {\n  stroke: #82b414;\n  fill: #82b414;\n}\n\n.color-11 {\n  stroke: #fd971f;\n  fill: #fd971f;\n}\n\n.color-12 {\n  stroke: #56c2d6;\n  fill: #56c2d6;\n}\n\n.color-13 {\n  stroke: #808384;\n  fill: #808384;\n}\n\n.color-14 {\n  stroke: #8c54fe;\n  fill: #8c54fe;\n}\n\n.color-15 {\n  stroke: #465457;\n  fill: #465457;\n}\n", "background": "black", "opacity_hover": ".4"}, "zero": 0, "show_minor_x_labels": true, "x_labels_major": null, "rounded_bars": null, "label_font_size": 10, "dots_size": 2.5, "x_label_rotation": 0, "x_labels": ["", "", "30-04", "", "", "", "", "", "", "", "", "", "", "", "", "", "", "", "", "", "", "", "", "", "31-05", "", "", "", "", "", "", "", "", "", "", "", "", "", "", "", "", "", "", "", "", "29-06", "", "", "", "", "", "", "", "", "", "", "", "", "", "", "", "", "", "", "", "", "31-07", "", "", "", "", "", "", "", "", "", "", "", "", "", "", "", "", "", "", "", "", "", "", "31-08", "", "", "", "", "", "", "", "", "", "", "", "", "", "", "", "", "", "", "28-09", "", "", "", "", "", "", "", "", "", "", "", "", "", "", "", "", "", "", "", "", "31-10", "", "", "", "", "", "", "", "", "", "", "", "", "", "", "", "", "", "", "", "", "30-11", "", "", "", "", "", "", "", "", "", "", "", "", "", "", "", "", "", "", "", "31-12", "", "", "", "", "", "", "", "", "", "", "", "", "", "", "", "", "", "", "", "", "31-01", "", "", "", "", "", "", "", "", "", "", "", "", "", "", "", "", "", "", "28-02", "", "", "", "", "", "", "", "", "", "", "", "", "", "", "", "", "", "", "", "28-03", "", "", "", "", "", "", "", "", "", "", "", "", "", "", "", "", "", ""], "value_font_size": 8, "disable_xml_declaration": false, "strict": false, "css": ["style.css", "graph.css"], "human_readable": false, "y_label_rotation": 0, "pretty_print": false, "interpolate": null, "js": ["http://kozea.github.com/pygal.js/javascripts/svg.jquery.js", "http://kozea.github.com/pygal.js/javascripts/pygal-tooltips.js"], "y_labels": null, "interpolation_precision": 250, "value_formatter": null, "no_data_font_size": 64, "logarithmic": false, "print_zeroes": false, "no_data_text": "No data", "x_labels_major_every": null, "title": "GOOG 1y", "legend_box_size": 12, "stroke": true, "include_x_axis": false, "range": null, "truncate_label": null, "order_min": null, "title_font_size": 16, "width": 800}</script><script type="text/javascript" xlink:href="http://kozea.github.com/pygal.js/javascripts/svg.jquery.js"/><script type="text/javascript" xlink:href="http://kozea.github.com/pygal.js/javascripts/pygal-tooltips.js"/></defs><g class="graph line-graph vertical"><rect class="background" height="600" width="800" x="0" y="0"/><g class="plot" transform="translate(115, 46)"><rect class="background" height="514" width="664.4" x="0" y="0"/><g class="axis x"><g class="guides"><path class="line" d="M12.776923 0.000000 v514.000000"/><text class="" x="12.7769230769" y="529.0"></text></g><g class="guides"><path class="guide line" d="M15.352916 0.000000 v514.000000"/><text class="" x="15.3529156328" y="529.0"></text></g><g class="guides"><path class="guide line" d="M17.928908 0.000000 v514.000000"/><text class="" x="17.9289081886" y="529.0">30-04</text></g><g class="guides"><path class="guide line" d="M20.504901 0.000000 v514.000000"/><text class="" x="20.5049007444" y="529.0"></text></g><g class="guides"><path class="guide line" d="M23.080893 0.000000 v514.000000"/><text class="" x="23.0808933002" y="529.0"></text></g><g class="guides"><path class="guide line" d="M25.656886 0.000000 v514.000000"/><text class="" x="25.6568858561" y="529.0"></text></g><g class="guides"><path class="guide line" d="M28.232878 0.000000 v514.000000"/><text class="" x="28.2328784119" y="529.0"></text></g><g class="guides"><path class="guide line" d="M30.808871 0.000000 v514.000000"/><text class="" x="30.8088709677" y="529.0"></text></g><g class="guides"><path class="guide line" d="M33.384864 0.000000 v514.000000"/><text class="" x="33.3848635236" y="529.0"></text></g><g class="guides"><path class="guide line" d="M35.960856 0.000000 v514.000000"/><text class="" x="35.9608560794" y="529.0"></text></g><g class="guides"><path class="guide line" d="M38.536849 0.000000 v514.000000"/><text class="" x="38.5368486352" y="529.0"></text></g><g class="guides"><path class="guide line" d="M41.112841 0.000000 v514.000000"/><text class="" x="41.1128411911" y="529.0"></text></g><g class="guides"><path class="guide line" d="M43.688834 0.000000 v514.000000"/><text class="" x="43.6888337469" y="529.0"></text></g><g class="guides"><path class="guide line" d="M46.264826 0.000000 v514.000000"/><text class="" x="46.2648263027" y="529.0"></text></g><g class="guides"><path class="guide line" d="M48.840819 0.000000 v514.000000"/><text class="" x="48.8408188586" y="529.0"></text></g><g class="guides"><path class="guide line" d="M51.416811 0.000000 v514.000000"/><text class="" x="51.4168114144" y="529.0"></text></g><g class="guides"><path class="guide line" d="M53.992804 0.000000 v514.000000"/><text class="" x="53.9928039702" y="529.0"></text></g><g class="guides"><path class="guide line" d="M56.568797 0.000000 v514.000000"/><text class="" x="56.5687965261" y="529.0"></text></g><g class="guides"><path class="guide line" d="M59.144789 0.000000 v514.000000"/><text class="" x="59.1447890819" y="529.0"></text></g><g class="guides"><path class="guide line" d="M61.720782 0.000000 v514.000000"/><text class="" x="61.7207816377" y="529.0"></text></g><g class="guides"><path class="guide line" d="M64.296774 0.000000 v514.000000"/><text class="" x="64.2967741935" y="529.0"></text></g><g class="guides"><path class="guide line" d="M66.872767 0.000000 v514.000000"/><text class="" x="66.8727667494" y="529.0"></text></g><g class="guides"><path class="guide line" d="M69.448759 0.000000 v514.000000"/><text class="" x="69.4487593052" y="529.0"></text></g><g class="guides"><path class="guide line" d="M72.024752 0.000000 v514.000000"/><text class="" x="72.024751861" y="529.0"></text></g><g class="guides"><path class="guide line" d="M74.600744 0.000000 v514.000000"/><text class="" x="74.6007444169" y="529.0">31-05</text></g><g class="guides"><path class="guide line" d="M77.176737 0.000000 v514.000000"/><text class="" x="77.1767369727" y="529.0"></text></g><g class="guides"><path class="guide line" d="M79.752730 0.000000 v514.000000"/><text class="" x="79.7527295285" y="529.0"></text></g><g class="guides"><path class="guide line" d="M82.328722 0.000000 v514.000000"/><text class="" x="82.3287220844" y="529.0"></text></g><g class="guides"><path class="guide line" d="M84.904715 0.000000 v514.000000"/><text class="" x="84.9047146402" y="529.0"></text></g><g class="guides"><path class="guide line" d="M87.480707 0.000000 v514.000000"/><text class="" x="87.480707196" y="529.0"></text></g><g class="guides"><path class="guide line" d="M90.056700 0.000000 v514.000000"/><text class="" x="90.0566997519" y="529.0"></text></g><g class="guides"><path class="guide line" d="M92.632692 0.000000 v514.000000"/><text class="" x="92.6326923077" y="529.0"></text></g><g class="guides"><path class="guide line" d="M95.208685 0.000000 v514.000000"/><text class="" x="95.2086848635" y="529.0"></text></g><g class="guides"><path class="guide line" d="M97.784677 0.000000 v514.000000"/><text class="" x="97.7846774194" y="529.0"></text></g><g class="guides"><path class="guide line" d="M100.360670 0.000000 v514.000000"/><text class="" x="100.360669975" y="529.0"></text></g><g class="guides"><path class="guide line" d="M102.936663 0.000000 v514.000000"/><text class="" x="102.936662531" y="529.0"></text></g><g class="guides"><path class="guide line" d="M105.512655 0.000000 v514.000000"/><text class="" x="105.512655087" y="529.0"></text></g><g class="guides"><path class="guide line" d="M108.088648 0.000000 v514.000000"/><text class="" x="108.088647643" y="529.0"></text></g><g class="guides"><path class="guide line" d="M110.664640 0.000000 v514.000000"/><text class="" x="110.664640199" y="529.0"></text></g><g class="guides"><path class="guide line" d="M113.240633 0.000000 v514.000000"/><text class="" x="113.240632754" y="529.0"></text></g><g class="guides"><path class="guide line" d="M115.816625 0.000000 v514.000000"/><text class="" x="115.81662531" y="529.0"></text></g><g class="guides"><path class="guide line" d="M118.392618 0.000000 v514.000000"/><text class="" x="118.392617866" y="529.0"></text></g><g class="guides"><path class="guide line" d="M120.968610 0.000000 v514.000000"/><text class="" x="120.968610422" y="529.0"></text></g><g class="guides"><path class="guide line" d="M123.544603 0.000000 v514.000000"/><text class="" x="123.544602978" y="529.0"></text></g><g class="guides"><path class="guide line" d="M126.120596 0.000000 v514.000000"/><text class="" x="126.120595533" y="529.0"></text></g><g class="guides"><path class="guide line" d="M128.696588 0.000000 v514.000000"/><text class="" x="128.696588089" y="529.0">29-06</text></g><g class="guides"><path class="guide line" d="M131.272581 0.000000 v514.000000"/><text class="" x="131.272580645" y="529.0"></text></g><g class="guides"><path class="guide line" d="M133.848573 0.000000 v514.000000"/><text class="" x="133.848573201" y="529.0"></text></g><g class="guides"><path class="guide line" d="M136.424566 0.000000 v514.000000"/><text class="" x="136.424565757" y="529.0"></text></g><g class="guides"><path class="guide line" d="M139.000558 0.000000 v514.000000"/><text class="" x="139.000558313" y="529.0"></text></g><g class="guides"><path class="guide line" d="M141.576551 0.000000 v514.000000"/><text class="" x="141.576550868" y="529.0"></text></g><g class="guides"><path class="guide line" d="M144.152543 0.000000 v514.000000"/><text class="" x="144.152543424" y="529.0"></text></g><g class="guides"><path class="guide line" d="M146.728536 0.000000 v514.000000"/><text class="" x="146.72853598" y="529.0"></text></g><g class="guides"><path class="guide line" d="M149.304529 0.000000 v514.000000"/><text class="" x="149.304528536" y="529.0"></text></g><g class="guides"><path class="guide line" d="M151.880521 0.000000 v514.000000"/><text class="" x="151.880521092" y="529.0"></text></g><g class="guides"><path class="guide line" d="M154.456514 0.000000 v514.000000"/><text class="" x="154.456513648" y="529.0"></text></g><g class="guides"><path class="guide line" d="M157.032506 0.000000 v514.000000"/><text class="" x="157.032506203" y="529.0"></text></g><g class="guides"><path class="guide line" d="M159.608499 0.000000 v514.000000"/><text class="" x="159.608498759" y="529.0"></text></g><g class="guides"><path class="guide line" d="M162.184491 0.000000 v514.000000"/><text class="" x="162.184491315" y="529.0"></text></g><g class="guides"><path class="guide line" d="M164.760484 0.000000 v514.000000"/><text class="" x="164.760483871" y="529.0"></text></g><g class="guides"><path class="guide line" d="M167.336476 0.000000 v514.000000"/><text class="" x="167.336476427" y="529.0"></text></g><g class="guides"><path class="guide line" d="M169.912469 0.000000 v514.000000"/><text class="" x="169.912468983" y="529.0"></text></g><g class="guides"><path class="guide line" d="M172.488462 0.000000 v514.000000"/><text class="" x="172.488461538" y="529.0"></text></g><g class="guides"><path class="guide line" d="M175.064454 0.000000 v514.000000"/><text class="" x="175.064454094" y="529.0"></text></g><g class="guides"><path class="guide line" d="M177.640447 0.000000 v514.000000"/><text class="" x="177.64044665" y="529.0"></text></g><g class="guides"><path class="guide line" d="M180.216439 0.000000 v514.000000"/><text class="" x="180.216439206" y="529.0"></text></g><g class="guides"><path class="guide line" d="M182.792432 0.000000 v514.000000"/><text class="" x="182.792431762" y="529.0">31-07</text></g><g class="guides"><path class="guide line" d="M185.368424 0.000000 v514.000000"/><text class="" x="185.368424318" y="529.0"></text></g><g class="guides"><path class="guide line" d="M187.944417 0.000000 v514.000000"/><text class="" x="187.944416873" y="529.0"></text></g><g class="guides"><path class="guide line" d="M190.520409 0.000000 v514.000000"/><text class="" x="190.520409429" y="529.0"></text></g><g class="guides"><path class="guide line" d="M193.096402 0.000000 v514.000000"/><text class="" x="193.096401985" y="529.0"></text></g><g class="guides"><path class="guide line" d="M195.672395 0.000000 v514.000000"/><text class="" x="195.672394541" y="529.0"></text></g><g class="guides"><path class="guide line" d="M198.248387 0.000000 v514.000000"/><text class="" x="198.248387097" y="529.0"></text></g><g class="guides"><path class="guide line" d="M200.824380 0.000000 v514.000000"/><text class="" x="200.824379653" y="529.0"></text></g><g class="guides"><path class="guide line" d="M203.400372 0.000000 v514.000000"/><text class="" x="203.400372208" y="529.0"></text></g><g class="guides"><path class="guide line" d="M205.976365 0.000000 v514.000000"/><text class="" x="205.976364764" y="529.0"></text></g><g class="guides"><path class="guide line" d="M208.552357 0.000000 v514.000000"/><text class="" x="208.55235732" y="529.0"></text></g><g class="guides"><path class="guide line" d="M211.128350 0.000000 v514.000000"/><text class="" x="211.128349876" y="529.0"></text></g><g class="guides"><path class="guide line" d="M213.704342 0.000000 v514.000000"/><text class="" x="213.704342432" y="529.0"></text></g><g class="guides"><path class="guide line" d="M216.280335 0.000000 v514.000000"/><text class="" x="216.280334988" y="529.0"></text></g><g class="guides"><path class="guide line" d="M218.856328 0.000000 v514.000000"/><text class="" x="218.856327543" y="529.0"></text></g><g class="guides"><path class="guide line" d="M221.432320 0.000000 v514.000000"/><text class="" x="221.432320099" y="529.0"></text></g><g class="guides"><path class="guide line" d="M224.008313 0.000000 v514.000000"/><text class="" x="224.008312655" y="529.0"></text></g><g class="guides"><path class="guide line" d="M226.584305 0.000000 v514.000000"/><text class="" x="226.584305211" y="529.0"></text></g><g class="guides"><path class="guide line" d="M229.160298 0.000000 v514.000000"/><text class="" x="229.160297767" y="529.0"></text></g><g class="guides"><path class="guide line" d="M231.736290 0.000000 v514.000000"/><text class="" x="231.736290323" y="529.0"></text></g><g class="guides"><path class="guide line" d="M234.312283 0.000000 v514.000000"/><text class="" x="234.312282878" y="529.0"></text></g><g class="guides"><path class="guide line" d="M236.888275 0.000000 v514.000000"/><text class="" x="236.888275434" y="529.0"></text></g><g class="guides"><path class="guide line" d="M239.464268 0.000000 v514.000000"/><text class="" x="239.46426799" y="529.0"></text></g><g class="guides"><path class="guide line" d="M242.040261 0.000000 v514.000000"/><text class="" x="242.040260546" y="529.0">31-08</text></g><g class="guides"><path class="guide line" d="M244.616253 0.000000 v514.000000"/><text class="" x="244.616253102" y="529.0"></text></g><g class="guides"><path class="guide line" d="M247.192246 0.000000 v514.000000"/><text class="" x="247.192245658" y="529.0"></text></g><g class="guides"><path class="guide line" d="M249.768238 0.000000 v514.000000"/><text class="" x="249.768238213" y="529.0"></text></g><g class="guides"><path class="guide line" d="M252.344231 0.000000 v514.000000"/><text class="" x="252.344230769" y="529.0"></text></g><g class="guides"><path class="guide line" d="M254.920223 0.000000 v514.000000"/><text class="" x="254.920223325" y="529.0"></text></g><g class="guides"><path class="guide line" d="M257.496216 0.000000 v514.000000"/><text class="" x="257.496215881" y="529.0"></text></g><g class="guides"><path class="guide line" d="M260.072208 0.000000 v514.000000"/><text class="" x="260.072208437" y="529.0"></text></g><g class="guides"><path class="guide line" d="M262.648201 0.000000 v514.000000"/><text class="" x="262.648200993" y="529.0"></text></g><g class="guides"><path class="guide line" d="M265.224194 0.000000 v514.000000"/><text class="" x="265.224193548" y="529.0"></text></g><g class="guides"><path class="guide line" d="M267.800186 0.000000 v514.000000"/><text class="" x="267.800186104" y="529.0"></text></g><g class="guides"><path class="guide line" d="M270.376179 0.000000 v514.000000"/><text class="" x="270.37617866" y="529.0"></text></g><g class="guides"><path class="guide line" d="M272.952171 0.000000 v514.000000"/><text class="" x="272.952171216" y="529.0"></text></g><g class="guides"><path class="guide line" d="M275.528164 0.000000 v514.000000"/><text class="" x="275.528163772" y="529.0"></text></g><g class="guides"><path class="guide line" d="M278.104156 0.000000 v514.000000"/><text class="" x="278.104156328" y="529.0"></text></g><g class="guides"><path class="guide line" d="M280.680149 0.000000 v514.000000"/><text class="" x="280.680148883" y="529.0"></text></g><g class="guides"><path class="guide line" d="M283.256141 0.000000 v514.000000"/><text class="" x="283.256141439" y="529.0"></text></g><g class="guides"><path class="guide line" d="M285.832134 0.000000 v514.000000"/><text class="" x="285.832133995" y="529.0"></text></g><g class="guides"><path class="guide line" d="M288.408127 0.000000 v514.000000"/><text class="" x="288.408126551" y="529.0"></text></g><g class="guides"><path class="guide line" d="M290.984119 0.000000 v514.000000"/><text class="" x="290.984119107" y="529.0">28-09</text></g><g class="guides"><path class="guide line" d="M293.560112 0.000000 v514.000000"/><text class="" x="293.560111663" y="529.0"></text></g><g class="guides"><path class="guide line" d="M296.136104 0.000000 v514.000000"/><text class="" x="296.136104218" y="529.0"></text></g><g class="guides"><path class="guide line" d="M298.712097 0.000000 v514.000000"/><text class="" x="298.712096774" y="529.0"></text></g><g class="guides"><path class="guide line" d="M301.288089 0.000000 v514.000000"/><text class="" x="301.28808933" y="529.0"></text></g><g class="guides"><path class="guide line" d="M303.864082 0.000000 v514.000000"/><text class="" x="303.864081886" y="529.0"></text></g><g class="guides"><path class="guide line" d="M306.440074 0.000000 v514.000000"/><text class="" x="306.440074442" y="529.0"></text></g><g class="guides"><path class="guide line" d="M309.016067 0.000000 v514.000000"/><text class="" x="309.016066998" y="529.0"></text></g><g class="guides"><path class="guide line" d="M311.592060 0.000000 v514.000000"/><text class="" x="311.592059553" y="529.0"></text></g><g class="guides"><path class="guide line" d="M314.168052 0.000000 v514.000000"/><text class="" x="314.168052109" y="529.0"></text></g><g class="guides"><path class="guide line" d="M316.744045 0.000000 v514.000000"/><text class="" x="316.744044665" y="529.0"></text></g><g class="guides"><path class="guide line" d="M319.320037 0.000000 v514.000000"/><text class="" x="319.320037221" y="529.0"></text></g><g class="guides"><path class="guide line" d="M321.896030 0.000000 v514.000000"/><text class="" x="321.896029777" y="529.0"></text></g><g class="guides"><path class="guide line" d="M324.472022 0.000000 v514.000000"/><text class="" x="324.472022333" y="529.0"></text></g><g class="guides"><path class="guide line" d="M327.048015 0.000000 v514.000000"/><text class="" x="327.048014888" y="529.0"></text></g><g class="guides"><path class="guide line" d="M329.624007 0.000000 v514.000000"/><text class="" x="329.624007444" y="529.0"></text></g><g class="guides"><path class="guide line" d="M332.200000 0.000000 v514.000000"/><text class="" x="332.2" y="529.0"></text></g><g class="guides"><path class="guide line" d="M334.775993 0.000000 v514.000000"/><text class="" x="334.775992556" y="529.0"></text></g><g class="guides"><path class="guide line" d="M337.351985 0.000000 v514.000000"/><text class="" x="337.351985112" y="529.0"></text></g><g class="guides"><path class="guide line" d="M339.927978 0.000000 v514.000000"/><text class="" x="339.927977667" y="529.0"></text></g><g class="guides"><path class="guide line" d="M342.503970 0.000000 v514.000000"/><text class="" x="342.503970223" y="529.0"></text></g><g class="guides"><path class="guide line" d="M345.079963 0.000000 v514.000000"/><text class="" x="345.079962779" y="529.0">31-10</text></g><g class="guides"><path class="guide line" d="M347.655955 0.000000 v514.000000"/><text class="" x="347.655955335" y="529.0"></text></g><g class="guides"><path class="guide line" d="M350.231948 0.000000 v514.000000"/><text class="" x="350.231947891" y="529.0"></text></g><g class="guides"><path class="guide line" d="M352.807940 0.000000 v514.000000"/><text class="" x="352.807940447" y="529.0"></text></g><g class="guides"><path class="guide line" d="M355.383933 0.000000 v514.000000"/><text class="" x="355.383933002" y="529.0"></text></g><g class="guides"><path class="guide line" d="M357.959926 0.000000 v514.000000"/><text class="" x="357.959925558" y="529.0"></text></g><g class="guides"><path class="guide line" d="M360.535918 0.000000 v514.000000"/><text class="" x="360.535918114" y="529.0"></text></g><g class="guides"><path class="guide line" d="M363.111911 0.000000 v514.000000"/><text class="" x="363.11191067" y="529.0"></text></g><g class="guides"><path class="guide line" d="M365.687903 0.000000 v514.000000"/><text class="" x="365.687903226" y="529.0"></text></g><g class="guides"><path class="guide line" d="M368.263896 0.000000 v514.000000"/><text class="" x="368.263895782" y="529.0"></text></g><g class="guides"><path class="guide line" d="M370.839888 0.000000 v514.000000"/><text class="" x="370.839888337" y="529.0"></text></g><g class="guides"><path class="guide line" d="M373.415881 0.000000 v514.000000"/><text class="" x="373.415880893" y="529.0"></text></g><g class="guides"><path class="guide line" d="M375.991873 0.000000 v514.000000"/><text class="" x="375.991873449" y="529.0"></text></g><g class="guides"><path class="guide line" d="M378.567866 0.000000 v514.000000"/><text class="" x="378.567866005" y="529.0"></text></g><g class="guides"><path class="guide line" d="M381.143859 0.000000 v514.000000"/><text class="" x="381.143858561" y="529.0"></text></g><g class="guides"><path class="guide line" d="M383.719851 0.000000 v514.000000"/><text class="" x="383.719851117" y="529.0"></text></g><g class="guides"><path class="guide line" d="M386.295844 0.000000 v514.000000"/><text class="" x="386.295843672" y="529.0"></text></g><g class="guides"><path class="guide line" d="M388.871836 0.000000 v514.000000"/><text class="" x="388.871836228" y="529.0"></text></g><g class="guides"><path class="guide line" d="M391.447829 0.000000 v514.000000"/><text class="" x="391.447828784" y="529.0"></text></g><g class="guides"><path class="guide line" d="M394.023821 0.000000 v514.000000"/><text class="" x="394.02382134" y="529.0"></text></g><g class="guides"><path class="guide line" d="M396.599814 0.000000 v514.000000"/><text class="" x="396.599813896" y="529.0"></text></g><g class="guides"><path class="guide line" d="M399.175806 0.000000 v514.000000"/><text class="" x="399.175806452" y="529.0">30-11</text></g><g class="guides"><path class="guide line" d="M401.751799 0.000000 v514.000000"/><text class="" x="401.751799007" y="529.0"></text></g><g class="guides"><path class="guide line" d="M404.327792 0.000000 v514.000000"/><text class="" x="404.327791563" y="529.0"></text></g><g class="guides"><path class="guide line" d="M406.903784 0.000000 v514.000000"/><text class="" x="406.903784119" y="529.0"></text></g><g class="guides"><path class="guide line" d="M409.479777 0.000000 v514.000000"/><text class="" x="409.479776675" y="529.0"></text></g><g class="guides"><path class="guide line" d="M412.055769 0.000000 v514.000000"/><text class="" x="412.055769231" y="529.0"></text></g><g class="guides"><path class="guide line" d="M414.631762 0.000000 v514.000000"/><text class="" x="414.631761787" y="529.0"></text></g><g class="guides"><path class="guide line" d="M417.207754 0.000000 v514.000000"/><text class="" x="417.207754342" y="529.0"></text></g><g class="guides"><path class="guide line" d="M419.783747 0.000000 v514.000000"/><text class="" x="419.783746898" y="529.0"></text></g><g class="guides"><path class="guide line" d="M422.359739 0.000000 v514.000000"/><text class="" x="422.359739454" y="529.0"></text></g><g class="guides"><path class="guide line" d="M424.935732 0.000000 v514.000000"/><text class="" x="424.93573201" y="529.0"></text></g><g class="guides"><path class="guide line" d="M427.511725 0.000000 v514.000000"/><text class="" x="427.511724566" y="529.0"></text></g><g class="guides"><path class="guide line" d="M430.087717 0.000000 v514.000000"/><text class="" x="430.087717122" y="529.0"></text></g><g class="guides"><path class="guide line" d="M432.663710 0.000000 v514.000000"/><text class="" x="432.663709677" y="529.0"></text></g><g class="guides"><path class="guide line" d="M435.239702 0.000000 v514.000000"/><text class="" x="435.239702233" y="529.0"></text></g><g class="guides"><path class="guide line" d="M437.815695 0.000000 v514.000000"/><text class="" x="437.815694789" y="529.0"></text></g><g class="guides"><path class="guide line" d="M440.391687 0.000000 v514.000000"/><text class="" x="440.391687345" y="529.0"></text></g><g class="guides"><path class="guide line" d="M442.967680 0.000000 v514.000000"/><text class="" x="442.967679901" y="529.0"></text></g><g class="guides"><path class="guide line" d="M445.543672 0.000000 v514.000000"/><text class="" x="445.543672457" y="529.0"></text></g><g class="guides"><path class="guide line" d="M448.119665 0.000000 v514.000000"/><text class="" x="448.119665012" y="529.0"></text></g><g class="guides"><path class="guide line" d="M450.695658 0.000000 v514.000000"/><text class="" x="450.695657568" y="529.0">31-12</text></g><g class="guides"><path class="guide line" d="M453.271650 0.000000 v514.000000"/><text class="" x="453.271650124" y="529.0"></text></g><g class="guides"><path class="guide line" d="M455.847643 0.000000 v514.000000"/><text class="" x="455.84764268" y="529.0"></text></g><g class="guides"><path class="guide line" d="M458.423635 0.000000 v514.000000"/><text class="" x="458.423635236" y="529.0"></text></g><g class="guides"><path class="guide line" d="M460.999628 0.000000 v514.000000"/><text class="" x="460.999627792" y="529.0"></text></g><g class="guides"><path class="guide line" d="M463.575620 0.000000 v514.000000"/><text class="" x="463.575620347" y="529.0"></text></g><g class="guides"><path class="guide line" d="M466.151613 0.000000 v514.000000"/><text class="" x="466.151612903" y="529.0"></text></g><g class="guides"><path class="guide line" d="M468.727605 0.000000 v514.000000"/><text class="" x="468.727605459" y="529.0"></text></g><g class="guides"><path class="guide line" d="M471.303598 0.000000 v514.000000"/><text class="" x="471.303598015" y="529.0"></text></g><g class="guides"><path class="guide line" d="M473.879591 0.000000 v514.000000"/><text class="" x="473.879590571" y="529.0"></text></g><g class="guides"><path class="guide line" d="M476.455583 0.000000 v514.000000"/><text class="" x="476.455583127" y="529.0"></text></g><g class="guides"><path class="guide line" d="M479.031576 0.000000 v514.000000"/><text class="" x="479.031575682" y="529.0"></text></g><g class="guides"><path class="guide line" d="M481.607568 0.000000 v514.000000"/><text class="" x="481.607568238" y="529.0"></text></g><g class="guides"><path class="guide line" d="M484.183561 0.000000 v514.000000"/><text class="" x="484.183560794" y="529.0"></text></g><g class="guides"><path class="guide line" d="M486.759553 0.000000 v514.000000"/><text class="" x="486.75955335" y="529.0"></text></g><g class="guides"><path class="guide line" d="M489.335546 0.000000 v514.000000"/><text class="" x="489.335545906" y="529.0"></text></g><g class="guides"><path class="guide line" d="M491.911538 0.000000 v514.000000"/><text class="" x="491.911538462" y="529.0"></text></g><g class="guides"><path class="guide line" d="M494.487531 0.000000 v514.000000"/><text class="" x="494.487531017" y="529.0"></text></g><g class="guides"><path class="guide line" d="M497.063524 0.000000 v514.000000"/><text class="" x="497.063523573" y="529.0"></text></g><g class="guides"><path class="guide line" d="M499.639516 0.000000 v514.000000"/><text class="" x="499.639516129" y="529.0"></text></g><g class="guides"><path class="guide line" d="M502.215509 0.000000 v514.000000"/><text class="" x="502.215508685" y="529.0"></text></g><g class="guides"><path class="guide line" d="M504.791501 0.000000 v514.000000"/><text class="" x="504.791501241" y="529.0">31-01</text></g><g class="guides"><path class="guide line" d="M507.367494 0.000000 v514.000000"/><text class="" x="507.367493797" y="529.0"></text></g><g class="guides"><path class="guide line" d="M509.943486 0.000000 v514.000000"/><text class="" x="509.943486352" y="529.0"></text></g><g class="guides"><path class="guide line" d="M512.519479 0.000000 v514.000000"/><text class="" x="512.519478908" y="529.0"></text></g><g class="guides"><path class="guide line" d="M515.095471 0.000000 v514.000000"/><text class="" x="515.095471464" y="529.0"></text></g><g class="guides"><path class="guide line" d="M517.671464 0.000000 v514.000000"/><text class="" x="517.67146402" y="529.0"></text></g><g class="guides"><path class="guide line" d="M520.247457 0.000000 v514.000000"/><text class="" x="520.247456576" y="529.0"></text></g><g class="guides"><path class="guide line" d="M522.823449 0.000000 v514.000000"/><text class="" x="522.823449132" y="529.0"></text></g><g class="guides"><path class="guide line" d="M525.399442 0.000000 v514.000000"/><text class="" x="525.399441687" y="529.0"></text></g><g class="guides"><path class="guide line" d="M527.975434 0.000000 v514.000000"/><text class="" x="527.975434243" y="529.0"></text></g><g class="guides"><path class="guide line" d="M530.551427 0.000000 v514.000000"/><text class="" x="530.551426799" y="529.0"></text></g><g class="guides"><path class="guide line" d="M533.127419 0.000000 v514.000000"/><text class="" x="533.127419355" y="529.0"></text></g><g class="guides"><path class="guide line" d="M535.703412 0.000000 v514.000000"/><text class="" x="535.703411911" y="529.0"></text></g><g class="guides"><path class="guide line" d="M538.279404 0.000000 v514.000000"/><text class="" x="538.279404467" y="529.0"></text></g><g class="guides"><path class="guide line" d="M540.855397 0.000000 v514.000000"/><text class="" x="540.855397022" y="529.0"></text></g><g class="guides"><path class="guide line" d="M543.431390 0.000000 v514.000000"/><text class="" x="543.431389578" y="529.0"></text></g><g class="guides"><path class="guide line" d="M546.007382 0.000000 v514.000000"/><text class="" x="546.007382134" y="529.0"></text></g><g class="guides"><path class="guide line" d="M548.583375 0.000000 v514.000000"/><text class="" x="548.58337469" y="529.0"></text></g><g class="guides"><path class="guide line" d="M551.159367 0.000000 v514.000000"/><text class="" x="551.159367246" y="529.0"></text></g><g class="guides"><path class="guide line" d="M553.735360 0.000000 v514.000000"/><text class="" x="553.735359801" y="529.0">28-02</text></g><g class="guides"><path class="guide line" d="M556.311352 0.000000 v514.000000"/><text class="" x="556.311352357" y="529.0"></text></g><g class="guides"><path class="guide line" d="M558.887345 0.000000 v514.000000"/><text class="" x="558.887344913" y="529.0"></text></g><g class="guides"><path class="guide line" d="M561.463337 0.000000 v514.000000"/><text class="" x="561.463337469" y="529.0"></text></g><g class="guides"><path class="guide line" d="M564.039330 0.000000 v514.000000"/><text class="" x="564.039330025" y="529.0"></text></g><g class="guides"><path class="guide line" d="M566.615323 0.000000 v514.000000"/><text class="" x="566.615322581" y="529.0"></text></g><g class="guides"><path class="guide line" d="M569.191315 0.000000 v514.000000"/><text class="" x="569.191315136" y="529.0"></text></g><g class="guides"><path class="guide line" d="M571.767308 0.000000 v514.000000"/><text class="" x="571.767307692" y="529.0"></text></g><g class="guides"><path class="guide line" d="M574.343300 0.000000 v514.000000"/><text class="" x="574.343300248" y="529.0"></text></g><g class="guides"><path class="guide line" d="M576.919293 0.000000 v514.000000"/><text class="" x="576.919292804" y="529.0"></text></g><g class="guides"><path class="guide line" d="M579.495285 0.000000 v514.000000"/><text class="" x="579.49528536" y="529.0"></text></g><g class="guides"><path class="guide line" d="M582.071278 0.000000 v514.000000"/><text class="" x="582.071277916" y="529.0"></text></g><g class="guides"><path class="guide line" d="M584.647270 0.000000 v514.000000"/><text class="" x="584.647270471" y="529.0"></text></g><g class="guides"><path class="guide line" d="M587.223263 0.000000 v514.000000"/><text class="" x="587.223263027" y="529.0"></text></g><g class="guides"><path class="guide line" d="M589.799256 0.000000 v514.000000"/><text class="" x="589.799255583" y="529.0"></text></g><g class="guides"><path class="guide line" d="M592.375248 0.000000 v514.000000"/><text class="" x="592.375248139" y="529.0"></text></g><g class="guides"><path class="guide line" d="M594.951241 0.000000 v514.000000"/><text class="" x="594.951240695" y="529.0"></text></g><g class="guides"><path class="guide line" d="M597.527233 0.000000 v514.000000"/><text class="" x="597.527233251" y="529.0"></text></g><g class="guides"><path class="guide line" d="M600.103226 0.000000 v514.000000"/><text class="" x="600.103225806" y="529.0"></text></g><g class="guides"><path class="guide line" d="M602.679218 0.000000 v514.000000"/><text class="" x="602.679218362" y="529.0"></text></g><g class="guides"><path class="guide line" d="M605.255211 0.000000 v514.000000"/><text class="" x="605.255210918" y="529.0">28-03</text></g><g class="guides"><path class="guide line" d="M607.831203 0.000000 v514.000000"/><text class="" x="607.831203474" y="529.0"></text></g><g class="guides"><path class="guide line" d="M610.407196 0.000000 v514.000000"/><text class="" x="610.40719603" y="529.0"></text></g><g class="guides"><path class="guide line" d="M612.983189 0.000000 v514.000000"/><text class="" x="612.983188586" y="529.0"></text></g><g class="guides"><path class="guide line" d="M615.559181 0.000000 v514.000000"/><text class="" x="615.559181141" y="529.0"></text></g><g class="guides"><path class="guide line" d="M618.135174 0.000000 v514.000000"/><text class="" x="618.135173697" y="529.0"></text></g><g class="guides"><path class="guide line" d="M620.711166 0.000000 v514.000000"/><text class="" x="620.711166253" y="529.0"></text></g><g class="guides"><path class="guide line" d="M623.287159 0.000000 v514.000000"/><text class="" x="623.287158809" y="529.0"></text></g><g class="guides"><path class="guide line" d="M625.863151 0.000000 v514.000000"/><text class="" x="625.863151365" y="529.0"></text></g><g class="guides"><path class="guide line" d="M628.439144 0.000000 v514.000000"/><text class="" x="628.439143921" y="529.0"></text></g><g class="guides"><path class="guide line" d="M631.015136 0.000000 v514.000000"/><text class="" x="631.015136476" y="529.0"></text></g><g class="guides"><path class="guide line" d="M633.591129 0.000000 v514.000000"/><text class="" x="633.591129032" y="529.0"></text></g><g class="guides"><path class="guide line" d="M636.167122 0.000000 v514.000000"/><text class="" x="636.167121588" y="529.0"></text></g><g class="guides"><path class="guide line" d="M638.743114 0.000000 v514.000000"/><text class="" x="638.743114144" y="529.0"></text></g><g class="guides"><path class="guide line" d="M641.319107 0.000000 v514.000000"/><text class="" x="641.3191067" y="529.0"></text></g><g class="guides"><path class="guide line" d="M643.895099 0.000000 v514.000000"/><text class="" x="643.895099256" y="529.0"></text></g><g class="guides"><path class="guide line" d="M646.471092 0.000000 v514.000000"/><text class="" x="646.471091811" y="529.0"></text></g><g class="guides"><path class="guide line" d="M649.047084 0.000000 v514.000000"/><text class="" x="649.047084367" y="529.0"></text></g><g class="guides"><path class="guide line" d="M651.623077 0.000000 v514.000000"/><text class="" x="651.623076923" y="529.0"></text></g></g><g class="axis y"><path class="line" d="M0.000000 514.000000 h664.400000"/><g class="guides"><path class="guide line" d="M0.000000 502.435831 h664.400000"/><text class="" x="-5" y="505.935830937">560.0</text></g><g class="guides"><path class="guide line" d="M0.000000 467.076806 h664.400000"/><text class="" x="-5" y="470.576806131">580.0</text></g><g class="guides"><path class="guide line" d="M0.000000 431.717781 h664.400000"/><text class="" x="-5" y="435.217781324">600.0</text></g><g class="guides"><path class="guide line" d="M0.000000 396.358757 h664.400000"/><text class="" x="-5" y="399.858756518">620.0</text></g><g class="guides"><path class="guide line" d="M0.000000 360.999732 h664.400000"/><text class="" x="-5" y="364.499731712">640.0</text></g><g class="guides"><path class="guide line" d="M0.000000 325.640707 h664.400000"/><text class="" x="-5" y="329.140706905">660.0</text></g><g class="guides"><path class="guide line" d="M0.000000 290.281682 h664.400000"/><text class="" x="-5" y="293.781682099">680.0</text></g><g class="guides"><path class="guide line" d="M0.000000 254.922657 h664.400000"/><text class="" x="-5" y="258.422657293">700.0</text></g><g class="guides"><path class="guide line" d="M0.000000 219.563632 h664.400000"/><text class="" x="-5" y="223.063632486">720.0</text></g><g class="guides"><path class="guide line" d="M0.000000 184.204608 h664.400000"/><text class="" x="-5" y="187.70460768">740.0</text></g><g class="guides"><path class="guide line" d="M0.000000 148.845583 h664.400000"/><text class="" x="-5" y="152.345582874">760.0</text></g><g class="guides"><path class="guide line" d="M0.000000 113.486558 h664.400000"/><text class="" x="-5" y="116.986558067">780.0</text></g><g class="guides"><path class="guide line" d="M0.000000 78.127533 h664.400000"/><text class="" x="-5" y="81.6275332609">800.0</text></g><g class="guides"><path class="guide line" d="M0.000000 42.768508 h664.400000"/><text class="" x="-5" y="46.2685084545">820.0</text></g></g><g class="series serie-0 color-0"><path class="line reactive nofill" d="M12.776923 404.367576 L15.352916 405.233872 17.928908 423.143218 20.504901 423.885757 23.080893 418.882455 25.656886 412.234959 28.232878 437.074674 30.808871 418.369749 33.384864 409.105685 35.960856 415.541027 38.536849 407.567567 41.112841 422.471396 43.688834 424.645976 46.264826 412.075843 48.840819 380.570952 51.416811 390.966505 53.992804 431.010601 56.568797 406.771989 59.144789 430.303420 61.720782 414.992963 64.296774 425.247080 66.872767 446.692328 69.448759 441.724385 72.024752 452.526567 74.600744 465.556368 77.176737 483.023726 79.752730 469.569617 82.328722 484.031459 84.904715 466.069074 87.480707 470.206080 90.056700 466.281228 92.632692 487.408245 95.208685 493.419280 97.784677 500.508764 100.360670 504.115385 102.936663 494.462371 105.512655 483.253560 108.088648 464.371841 110.664640 471.479005 113.240633 493.224805 115.816625 482.139751 118.392618 501.198265 120.968610 494.161819 123.544603 485.993884 126.120596 494.815961 128.696588 466.953050 131.272581 466.245869 133.848573 453.233748 136.424566 438.931022 139.000558 456.504458 141.576551 456.451419 144.152543 464.071289 146.728536 482.652457 149.304529 483.907702 151.880521 473.229276 154.456514 476.057998 157.032506 472.858007 159.608499 465.733163 162.184491 443.987363 164.760484 412.588549 167.336476 404.296858 169.912469 418.334390 172.488462 417.591851 175.064454 408.097953 177.640447 369.910206 180.216439 374.612956 182.792432 373.428429 185.368424 373.941135 187.944417 380.889183 190.520409 358.648357 193.096402 356.014109 195.672395 360.045038 198.248387 357.057200 200.824380 356.845046 203.400372 357.463829 205.976365 325.623027 208.552357 310.330249 211.128350 312.310355 213.704342 302.887174 216.280335 295.338023 218.856328 298.166745 221.432320 308.827491 224.008313 295.267305 226.584305 295.939126 229.160298 292.703775 231.736290 309.340196 234.312283 295.143548 236.888275 276.120393 239.464268 287.311524 242.040261 281.282810 244.616253 288.443013 247.192246 289.008757 249.768238 255.983428 252.344231 244.049757 254.920223 253.561335 257.496216 268.730356 260.072208 271.046373 262.648201 244.244232 265.224194 237.808889 267.800186 237.278504 270.376179 222.604509 272.952171 206.303998 275.528164 205.207868 278.104156 194.829995 280.680149 167.621225 283.256141 168.010174 285.832134 160.407984 288.408127 155.033412 290.984119 158.569315 293.560112 145.698630 296.136104 154.167116 298.712097 144.425705 301.288089 134.613575 303.864082 135.320756 306.440074 152.664358 309.016067 176.973687 311.592060 176.142750 314.168052 163.908527 316.744045 175.806839 319.320037 182.472015 321.896030 175.895237 324.472022 156.819043 327.048015 263.762413 329.624007 287.117049 332.200000 292.633057 334.775993 289.662899 337.351985 295.055150 339.927978 294.241893 342.503970 298.856246 345.079963 289.751297 347.655955 276.862932 350.231948 276.279508 352.807940 285.048546 355.383933 287.240806 357.959926 313.052894 360.535918 339.271611 363.111911 320.283815 365.687903 315.209795 368.263896 327.320261 370.839888 338.811944 373.415881 348.164406 375.991873 348.305842 378.567866 311.125827 381.143859 308.014233 383.719851 315.262833 386.295844 311.550136 388.871836 323.607563 391.447829 306.705949 394.023821 283.793301 396.599814 269.260742 399.175806 257.804418 401.751799 263.320426 404.327792 270.781180 406.903784 276.456303 409.479777 270.604385 412.055769 282.838607 414.631762 280.699386 417.207754 260.438665 419.783747 259.236458 422.359739 250.149189 424.935732 251.457473 427.511725 218.184631 430.087717 217.671925 432.663710 219.369158 435.239702 215.391268 437.815695 227.289579 440.391687 238.127121 442.967680 239.240930 445.543672 243.802244 448.119665 254.904978 450.695658 241.875177 453.271650 213.817791 455.847643 213.075251 458.423635 187.793549 460.999628 193.486352 463.575620 196.049881 466.151613 187.528356 468.727605 181.588040 471.303598 184.222287 473.879591 213.817791 476.455583 210.847633 479.031576 228.067478 481.607568 234.909449 484.183561 246.949197 486.759553 249.848637 489.335546 181.552681 491.911538 159.082021 494.487531 160.036714 497.063524 165.234491 499.639516 160.019035 502.215509 159.753842 504.791501 156.465453 507.367494 121.265544 509.943486 150.578175 512.519479 138.697543 515.095471 130.865519 517.671464 124.182663 520.247457 103.992660 522.823449 109.208116 525.399442 112.248992 527.975434 108.430218 530.551427 99.661179 533.127419 90.697667 535.703412 66.017067 538.279404 91.457886 540.855397 86.030275 543.431390 78.640239 546.007382 94.445723 548.583375 95.577212 551.159367 78.516483 553.735360 76.005992 556.311352 67.183915 558.887345 40.116582 561.463337 9.884615 564.039330 22.649223 566.615323 20.492323 569.191315 22.401710 571.767308 16.567471 574.343300 29.314400 576.919293 33.380687 579.495285 40.045864 582.071278 52.845831 584.647270 64.355193 587.223263 58.114325 589.799256 52.120971 592.375248 58.220402 594.951241 59.899956 597.527233 61.084483 600.103226 56.169579 602.679218 73.424783 605.255211 88.399330 607.831203 76.023671 610.407196 55.073449 612.983189 67.166236 615.559181 86.843533 618.135174 108.094307 620.711166 122.591507 623.287159 117.641243 625.863151 95.488814 628.439144 95.117545 631.015136 95.718648 633.591129 110.074412 636.167122 89.849050 638.743114 108.960603 641.319107 138.396991 643.895099 78.357367 646.471092 77.933059 649.047084 64.160718 651.623077 54.348589"/></g></g><g class="plot overlay" transform="translate(115, 46)"><g class="series serie-0 color-0"/></g><g class="plot text-overlay" transform="translate(115, 46)"><g class="series serie-0 color-0"/></g><g class="plot tooltip-overlay" transform="translate(115, 46)"><g id="tooltip" style="opacity: 0" transform="translate(0 0)"><a><rect height="0" id="tooltip-box" rx="5" ry="5" width="0"/><text class="text"><tspan class="label"/><tspan class="value"/></text></a></g></g><g class="legends" transform="translate(10, 56)"><g class="legend reactive activate-serie" id="activate-serie-0"><rect class="color-0 reactive" height="12" width="12" x="0.0" y="1.0"/><text x="17.0" y="11.2">GOOG</text></g></g><g class="legends" transform="translate(790, 56)"/><g class="titles"><text class="title" x="400.0" y="26">GOOG 1y</text></g></g></svg>